<svg xmlns="http://www.w3.org/2000/svg" viewBox="0 0 382.2 84.46"><defs><style>.cls-1{fill:#4d4d4d;}.cls-2{fill:#d3145a;}</style></defs><title>Zasób 2</title><g id="Warstwa_2" data-name="Warstwa 2"><g id="Warstwa_1-2" data-name="Warstwa 1"><path class="cls-1" d="M108.7,23.35c-4.8-4.6-11.1-6.9-19.1-6.9A29.63,29.63,0,0,0,76,19.55a23.43,23.43,0,0,0-9.3,8.9,27.12,27.12,0,0,0-3.3,13.6,28.32,28.32,0,0,0,2,10.7,20.66,20.66,0,0,0,5.6,7.9,26.92,26.92,0,0,0,8.4,4.9,31.94,31.94,0,0,0,10.4,1.7,28.56,28.56,0,0,0,9.9-1.6,1.42,1.42,0,0,0,.5-2.4L96,59.05a1.37,1.37,0,0,0-1.3-.4,18.59,18.59,0,0,1-3.3.4,19.82,19.82,0,0,1-6.9-.8,19.31,19.31,0,0,1-5.9-3,16.34,16.34,0,0,1-4.2-5.4,18.48,18.48,0,0,1-1.8-7.6,19.09,19.09,0,0,1,.7-6.4A14.94,14.94,0,0,1,75.7,31a13.42,13.42,0,0,1,3.7-3.4,19.68,19.68,0,0,1,4.4-2.1,15,15,0,0,1,4.7-.8,23.63,23.63,0,0,1,4.6.2,18.25,18.25,0,0,1,4.7,1.5,17.11,17.11,0,0,1,4.4,3,14,14,0,0,1,3.2,5.1,20.6,20.6,0,0,1,1.5,7.3,22.61,22.61,0,0,1-.2,4.6,1.29,1.29,0,0,0,.4,1.2l4.9,4.9a1.48,1.48,0,0,0,2.4-.5,30.47,30.47,0,0,0,1.7-10.3C115.9,34.15,113.5,28,108.7,23.35Z"/><path class="cls-1" d="M174.7,46.65V18.25a1.37,1.37,0,0,0-1.4-1.4h-5.9a1.37,1.37,0,0,0-1.4,1.4l.1,30.1a15,15,0,0,1-.5,4.2,7.78,7.78,0,0,1-4.2,4.9,16.86,16.86,0,0,1-8.2,1.8c-4.6,0-8-1.1-10.3-3.2a6.91,6.91,0,0,1-2-3.2,17.78,17.78,0,0,1-.5-4.4l-.1-30.1a1.37,1.37,0,0,0-1.4-1.4H133a1.37,1.37,0,0,0-1.4,1.4l.1,30.8v.5a37.93,37.93,0,0,0,.2,3.8c1.1,9.2,8.3,13.8,21.5,13.8a35.72,35.72,0,0,0,7.7-.8,20.26,20.26,0,0,0,5.6-1.9,15.59,15.59,0,0,0,3.8-2.8,11.48,11.48,0,0,0,2.4-3.3,11.73,11.73,0,0,0,1.3-3.6,16.55,16.55,0,0,0,.5-3.3c0-.9.1-1.9.1-3A9.76,9.76,0,0,1,174.7,46.65Z"/><path class="cls-1" d="M200.5,16.75h-5.9a1.37,1.37,0,0,0-1.4,1.4l.1,46.8a1.37,1.37,0,0,0,1.4,1.4h5.9A1.37,1.37,0,0,0,202,65l-.1-46.8A1.31,1.31,0,0,0,200.5,16.75Z"/><path class="cls-1" d="M262.4,56.15a8.93,8.93,0,0,0-1.3.5,35.37,35.37,0,0,1-11.5,2.1,26.28,26.28,0,0,1-8.6-1.4,21,21,0,0,1-6.6-3.7,15.87,15.87,0,0,1-4.1-5.5,15.17,15.17,0,0,1-1.5-6.6,15.6,15.6,0,0,1,1.3-6.4,17.07,17.07,0,0,1,9.9-9.3,21,21,0,0,1,8-1.4,39.06,39.06,0,0,1,12.3,2.2h0a1.38,1.38,0,0,0,1.8-.9l1.8-4.9a1.4,1.4,0,0,0-.8-1.8h0a41,41,0,0,0-14.9-2.7,37.74,37.74,0,0,0-12,1.9,25.08,25.08,0,0,0-8.9,5.3,23.8,23.8,0,0,0-5.5,8,25.45,25.45,0,0,0-1.9,10,25,25,0,0,0,1.9,9.9,23.25,23.25,0,0,0,5.3,8.1,24.94,24.94,0,0,0,8.8,5.5,34.53,34.53,0,0,0,11.9,2,39.52,39.52,0,0,0,16-3.3h0c.7-.3.9-1,.8-1.9C264.7,61.85,263.7,56.25,262.4,56.15Z"/><path class="cls-1" d="M318.8,63.75,297,41.35a1.52,1.52,0,0,1,0-2L317.4,19a1.46,1.46,0,0,0-1-2.5h-7.2a1.78,1.78,0,0,0-1,.4l-19.7,19.9a1.46,1.46,0,0,1-2.5-1V18a1.37,1.37,0,0,0-1.4-1.4h-5.9a1.37,1.37,0,0,0-1.4,1.4l.1,46.8a1.37,1.37,0,0,0,1.4,1.4h5.9a1.37,1.37,0,0,0,1.4-1.4V45.65a1.46,1.46,0,0,1,2.5-1l20.9,21.1a1.28,1.28,0,0,0,1,.4h7.4A1.44,1.44,0,0,0,318.8,63.75Z"/><path class="cls-1" d="M378.7,27.45a22,22,0,0,0-9.3-8.6A28,28,0,0,0,355.9,16a29.93,29.93,0,0,0-13.6,3.1A22.77,22.77,0,0,0,333,28a27,27,0,0,0-3.3,13.5,26.51,26.51,0,0,0,2.2,11.1,20.59,20.59,0,0,0,5.8,7.9,25,25,0,0,0,8.3,4.6,28.79,28.79,0,0,0,9.8,1.6,28.17,28.17,0,0,0,13.8-3.3,22.89,22.89,0,0,0,9.3-9.2,27,27,0,0,0,3.3-13.5A26,26,0,0,0,378.7,27.45Zm-7.1,21.6a13.2,13.2,0,0,1-4,5.4,19.11,19.11,0,0,1-5.4,3,17.58,17.58,0,0,1-6,1,17,17,0,0,1-12.5-4.9c-3.3-3.2-5-7.6-5-13a17.54,17.54,0,0,1,1-6.2,15.1,15.1,0,0,1,2.6-4.7,14.4,14.4,0,0,1,3.8-3.2,16.59,16.59,0,0,1,4.6-1.9,19.93,19.93,0,0,1,4.9-.6,21.36,21.36,0,0,1,5,.6,17.51,17.51,0,0,1,4.7,2,16,16,0,0,1,4,3.3,13.7,13.7,0,0,1,2.8,4.9,19.26,19.26,0,0,1,1.1,6.5A21.24,21.24,0,0,1,371.6,49.05Z"/><path class="cls-2" d="M20.3,1.25a2.81,2.81,0,0,1,.1,3.9,55.26,55.26,0,0,0,.1,74.3,2.81,2.81,0,0,1-.1,3.9l-.3.3a2.87,2.87,0,0,1-4.1-.1A61.59,61.59,0,0,1,15.8,1a2.79,2.79,0,0,1,4.1-.1Z"/><path class="cls-2" d="M35,12.45a2.9,2.9,0,0,0-4.2.1,45.25,45.25,0,0,0,.2,59.6,2.79,2.79,0,0,0,4.1.1l.2-.2a2.81,2.81,0,0,0,.1-3.9,39.31,39.31,0,0,1-.1-51.6,2.81,2.81,0,0,0-.1-3.9Z"/><path class="cls-2" d="M49.8,24a2.76,2.76,0,0,0-4.2.3,29,29,0,0,0,.1,36.2,2.75,2.75,0,0,0,4.2.2l.2-.2a2.89,2.89,0,0,0,.2-3.8,23.13,23.13,0,0,1-.1-28.6,2.78,2.78,0,0,0-.2-3.8Z"/><path class="cls-1" d="M111.1,61.35,109.5,63a3,3,0,0,1-4.3,0l-9.1-9a3,3,0,0,1,0-4.3l1.6-1.6a3,3,0,0,1,4.3,0l9.1,9.1A2.9,2.9,0,0,1,111.1,61.35Z"/></g></g></svg>