<?xml version="1.0" encoding="UTF-8"?>
<svg width="574px" height="1180px" viewBox="0 0 574 1180" version="1.1" xmlns="http://www.w3.org/2000/svg" xmlns:xlink="http://www.w3.org/1999/xlink">
    <!-- Generator: Sketch 63.1 (92452) - https://sketch.com -->
    <title>Artboard Copy</title>
    <desc>Created with Sketch.</desc>
    <defs>
        <rect id="path-1" x="25" y="129" width="525" height="906"></rect>
        <filter x="-1.1%" y="-0.7%" width="102.3%" height="101.3%" filterUnits="objectBoundingBox" id="filter-2">
            <feGaussianBlur stdDeviation="2" in="SourceGraphic"></feGaussianBlur>
        </filter>
        <filter x="-1.5%" y="-0.9%" width="103.0%" height="101.8%" filterUnits="objectBoundingBox" id="filter-4">
            <feGaussianBlur stdDeviation="2" in="SourceAlpha" result="shadowBlurInner1"></feGaussianBlur>
            <feOffset dx="0" dy="0" in="shadowBlurInner1" result="shadowOffsetInner1"></feOffset>
            <feComposite in="shadowOffsetInner1" in2="SourceAlpha" operator="arithmetic" k2="-1" k3="1" result="shadowInnerInner1"></feComposite>
            <feColorMatrix values="0 0 0 0 0   0 0 0 0 0   0 0 0 0 0  0 0 0 0.746967876 0" type="matrix" in="shadowInnerInner1"></feColorMatrix>
        </filter>
    </defs>
    <g id="Artboard-Copy" stroke="none" stroke-width="1" fill="none" fill-rule="evenodd">
        <g id="Obszar-roboczy-1" fill-rule="nonzero">
            <path d="M491.033648,0.467034121 C539.325891,0.467034121 578.474488,39.6156316 578.474488,87.907874 L578.474488,1088.00871 C578.474488,1136.30096 539.325891,1175.44955 491.033648,1175.44955 L87.4408399,1175.44955 C39.1485975,1175.44955 4.56759846e-12,1136.30096 4.54747351e-12,1088.00871 L4.54747351e-12,87.907874 C4.54155941e-12,39.6156316 39.1485975,0.467034121 87.4408399,0.467034121 L491.033648,0.467034121 Z M550,129 L25,129 L25,1035 L550,1035 L550,129 Z" id="Combined-Shape" fill="#E0E1E0"></path>
            <path d="M491.176772,0.836141732 C538.91986,0.836141732 577.623281,39.5395622 577.623281,87.2826509 L577.623281,1088.09911 C577.623281,1135.8422 538.91986,1174.54562 491.176772,1174.54562 L87.2901837,1174.54562 C39.547095,1174.54562 0.843674541,1135.8422 0.843674541,1088.09911 L0.843674541,87.2826509 C0.843674541,39.5395622 39.547095,0.836141732 87.2901837,0.836141732 L491.176772,0.836141732 Z M550,129 L25,129 L25,1035 L550,1035 L550,129 Z" id="Combined-Shape" fill="#E1E1E1"></path>
            <path d="M491.319895,1.19771654 C538.51799,1.19771654 576.779606,39.4593326 576.779606,86.6574278 L576.779606,1088.18197 C576.779606,1135.38006 538.51799,1173.64168 491.319895,1173.64168 L87.1545932,1173.64168 C39.9564979,1173.64168 1.69488189,1135.38006 1.69488189,1088.18197 L1.69488189,86.6574278 C1.69488189,39.4593326 39.9564979,1.19771654 87.1545932,1.19771654 L491.319895,1.19771654 Z M550,129 L25,129 L25,1035 L550,1035 L550,129 Z" id="Combined-Shape" fill="#E2E2E2"></path>
            <path d="M491.455486,1.55929134 C538.108587,1.55929134 575.928399,39.3791029 575.928399,86.0322047 L575.928399,1088.26483 C575.928399,1134.91793 538.108587,1172.73774 491.455486,1172.73774 L87.0114698,1172.73774 C40.358368,1172.73774 2.53855643,1134.91793 2.53855643,1088.26483 L2.53855643,86.0322047 C2.53855643,39.3791029 40.358368,1.55929134 87.0114698,1.55929134 L491.455486,1.55929134 Z M550,129 L25,129 L25,1035 L550,1035 L550,129 Z" id="Combined-Shape" fill="#E3E3E3"></path>
            <path d="M491.606142,1.92086614 C537.71009,1.92086614 575.084724,39.2955007 575.084724,85.3994488 L575.084724,1088.35522 C575.084724,1134.45917 537.71009,1171.83381 491.606142,1171.83381 L86.8683465,1171.83381 C40.7643983,1171.83381 3.38976378,1134.45917 3.38976378,1088.35522 L3.38976378,85.3994488 C3.38976378,39.2955007 40.7643983,1.92086614 86.8683465,1.92086614 L491.606142,1.92086614 Z M550,129 L25,129 L25,1035 L550,1035 L550,129 Z" id="Combined-Shape" fill="#E4E4E3"></path>
            <path d="M491.749265,2.28997375 C537.30822,2.28997375 574.24105,39.2228038 574.24105,84.7817585 L574.24105,1088.44562 C574.24105,1134.00457 537.30822,1170.9374 491.749265,1170.9374 L86.7252231,1170.9374 C41.1662684,1170.9374 4.23343832,1134.00457 4.23343832,1088.44562 L4.23343832,84.7817585 C4.23343832,39.2228038 41.1662684,2.28997375 86.7252231,2.28997375 L491.749265,2.28997375 Z M550,129 L25,129 L25,1035 L550,1035 L550,129 Z" id="Combined-Shape" fill="#E5E5E4"></path>
            <path d="M491.892388,2.65154856 C536.902189,2.65154856 573.389843,39.1392016 573.389843,84.1490026 L573.389843,1088.52848 C573.389843,1133.53828 536.902189,1170.02593 491.892388,1170.02593 L86.5745669,1170.02593 C41.5647659,1170.02593 5.07711286,1133.53828 5.07711286,1088.52848 L5.07711286,84.1490026 C5.07711286,39.1392016 41.5647659,2.65154856 86.5745669,2.65154856 L491.892388,2.65154856 Z M550,129 L25,129 L25,1035 L550,1035 L550,129 Z" id="Combined-Shape" fill="#E6E6E5"></path>
            <path d="M492.035512,3.01312336 C536.500319,3.01312336 572.546168,39.0589719 572.546168,83.5237795 L572.546168,1088.61134 C572.546168,1133.07615 536.500319,1169.12199 492.035512,1169.12199 L86.4389764,1169.12199 C41.9741688,1169.12199 5.92832021,1133.07615 5.92832021,1088.61134 L5.92832021,83.5237795 C5.92832021,39.0589719 41.9741688,3.01312336 86.4389764,3.01312336 L492.035512,3.01312336 Z M550,129 L25,129 L25,1035 L550,1035 L550,129 Z" id="Combined-Shape" fill="#E7E7E6"></path>
            <path d="M492.171102,3.38223097 C536.090917,3.38223097 571.694961,38.9862751 571.694961,82.9060892 L571.694961,1088.70173 C571.694961,1132.62155 536.090917,1168.22559 492.171102,1168.22559 L86.295853,1168.22559 C42.3760388,1168.22559 6.77199475,1132.62155 6.77199475,1088.70173 L6.77199475,82.9060892 C6.77199475,38.9862751 42.3760388,3.38223097 86.295853,3.38223097 L492.171102,3.38223097 Z M550,129 L25,129 L25,1035 L550,1035 L550,129 Z" id="Combined-Shape" fill="#E8E8E7"></path>
            <path d="M492.321759,3.74380577 C535.692419,3.74380577 570.851286,38.9026729 570.851286,82.2733333 L570.851286,1088.79213 C570.851286,1132.16279 535.692419,1167.32165 492.321759,1167.32165 L86.1527297,1167.32165 C42.7820692,1167.32165 7.6232021,1132.16279 7.6232021,1088.79213 L7.6232021,82.2733333 C7.6232021,38.9026729 42.7820692,3.74380577 86.1527297,3.74380577 L492.321759,3.74380577 Z M550,129 L25,129 L25,1035 L550,1035 L550,129 Z" id="Combined-Shape" fill="#E9E8E8"></path>
            <path d="M492.464882,4.10538058 C535.290549,4.10538058 570.007612,38.8224432 570.007612,81.6481102 L570.007612,1088.87499 C570.007612,1131.70065 535.290549,1166.41772 492.464882,1166.41772 L86.0096063,1166.41772 C43.1839392,1166.41772 8.46687664,1131.70065 8.46687664,1088.87499 L8.46687664,81.6481102 C8.46687664,38.8224432 43.1839392,4.10538058 86.0096063,4.10538058 L492.464882,4.10538058 Z M550,129 L25,129 L25,1035 L550,1035 L550,129 Z" id="Combined-Shape" fill="#E9E9E9"></path>
            <path d="M492.608005,4.46695538 C534.884519,4.46695538 569.156404,38.738841 569.156404,81.0153543 L569.156404,1088.95785 C569.156404,1131.23436 534.884519,1165.50625 492.608005,1165.50625 L85.8589501,1165.50625 C43.5824368,1165.50625 9.31055118,1131.23436 9.31055118,1088.95785 L9.31055118,81.0153543 C9.31055118,38.738841 43.5824368,4.46695538 85.8589501,4.46695538 L492.608005,4.46695538 Z M550,129 L25,129 L25,1035 L550,1035 L550,129 Z" id="Combined-Shape" fill="#EAEAEA"></path>
            <path d="M492.751129,4.83606299 C534.482649,4.83606299 568.31273,38.6661441 568.31273,80.397664 L568.31273,1089.04824 C568.31273,1130.77976 534.482649,1164.60984 492.751129,1164.60984 L85.7233596,1164.60984 C43.9918396,1164.60984 10.1617585,1130.77976 10.1617585,1089.04824 L10.1617585,80.397664 C10.1617585,38.6661441 43.9918396,4.83606299 85.7233596,4.83606299 L492.751129,4.83606299 Z M550,129 L25,129 L25,1035 L550,1035 L550,129 Z" id="Combined-Shape" fill="#EBEBEA"></path>
            <path d="M492.894252,5.1976378 C534.076618,5.1976378 567.461522,38.5825419 567.461522,79.7649081 L567.461522,1089.13864 C567.461522,1130.321 534.076618,1163.70591 492.894252,1163.70591 L85.5727034,1163.70591 C44.3903372,1163.70591 11.0054331,1130.321 11.0054331,1089.13864 L11.0054331,79.7649081 C11.0054331,38.5825419 44.3903372,5.1976378 85.5727034,5.1976378 L492.894252,5.1976378 Z M550,129 L25,129 L25,1035 L550,1035 L550,129 Z" id="Combined-Shape" fill="#ECECEB"></path>
            <path d="M493.037375,5.5592126 C533.674748,5.5592126 566.617848,38.5023122 566.617848,79.139685 L566.617848,1089.2215 C566.617848,1129.85887 533.674748,1162.80197 493.037375,1162.80197 L85.4371129,1162.80197 C44.79974,1162.80197 11.8566404,1129.85887 11.8566404,1089.2215 L11.8566404,79.139685 C11.8566404,38.5023122 44.79974,5.5592126 85.4371129,5.5592126 L493.037375,5.5592126 Z M550,129 L25,129 L25,1035 L550,1035 L550,129 Z" id="Combined-Shape" fill="#EDEDEC"></path>
            <path d="M493.180499,5.9207874 C533.272878,5.9207874 565.774173,38.4220826 565.774173,78.5144619 L565.774173,1089.30436 C565.774173,1129.39674 533.272878,1161.89803 493.180499,1161.89803 L85.2939895,1161.89803 C45.2016101,1161.89803 12.700315,1129.39674 12.700315,1089.30436 L12.700315,78.5144619 C12.700315,38.4220826 45.2016101,5.9207874 85.2939895,5.9207874 L493.180499,5.9207874 Z M550,129 L25,129 L25,1035 L550,1035 L550,129 Z" id="Combined-Shape" fill="#EEEEED"></path>
            <path d="M493.331155,6.28989501 C532.874381,6.28989501 564.930499,38.3460131 564.930499,77.8892388 L564.930499,1089.39475 C564.930499,1128.93798 532.874381,1160.99409 493.331155,1160.99409 L85.1508661,1160.99409 C45.6076404,1160.99409 13.5515223,1128.93798 13.5515223,1089.39475 L13.5515223,77.8892388 C13.5515223,38.3460131 45.6076404,6.28989501 85.1508661,6.28989501 L493.331155,6.28989501 Z M550,129 L25,129 L25,1035 L550,1035 L550,129 Z" id="Combined-Shape" fill="#EFEFEE"></path>
            <path d="M493.466745,6.65146982 C532.464978,6.65146982 564.079291,38.2657835 564.079291,77.2640157 L564.079291,1089.47761 C564.079291,1128.47584 532.464978,1160.09016 493.466745,1160.09016 L85.0077428,1160.09016 C46.0095105,1160.09016 14.3951969,1128.47584 14.3951969,1089.47761 L14.3951969,77.2640157 C14.3951969,38.2657835 46.0095105,6.65146982 85.0077428,6.65146982 L493.466745,6.65146982 Z M550,129 L25,129 L25,1035 L550,1035 L550,129 Z" id="Combined-Shape" fill="#F0F0EF"></path>
            <path d="M493.609869,7.01304462 C532.058947,7.01304462 563.228084,38.1821813 563.228084,76.6312598 L563.228084,1089.56801 C563.228084,1128.01708 532.058947,1159.18622 493.609869,1159.18622 L84.8570866,1159.18622 C46.408008,1159.18622 15.2388714,1128.01708 15.2388714,1089.56801 L15.2388714,76.6312598 C15.2388714,38.1821813 46.408008,7.01304462 84.8570866,7.01304462 L493.609869,7.01304462 Z M550,129 L25,129 L25,1035 L550,1035 L550,129 Z" id="Combined-Shape" fill="#F1F1F0"></path>
            <path d="M493.752992,7.37461942 C531.657077,7.37461942 562.384409,38.1019516 562.384409,76.0060367 L562.384409,1089.65087 C562.384409,1127.55495 531.657077,1158.28228 493.752992,1158.28228 L84.7214961,1158.28228 C46.8174109,1158.28228 16.0900787,1127.55495 16.0900787,1089.65087 L16.0900787,76.0060367 C16.0900787,38.1019516 46.8174109,7.37461942 84.7214961,7.37461942 L493.752992,7.37461942 Z M550,129 L25,129 L25,1035 L550,1035 L550,129 Z" id="Combined-Shape" fill="#F2F2F1"></path>
            <path d="M493.896115,7.74372703 C531.251047,7.74372703 561.533202,38.0258822 561.533202,75.3808136 L561.533202,1089.74879 C561.533202,1127.10372 531.251047,1157.38588 493.896115,1157.38588 L84.5708399,1157.38588 C47.2159084,1157.38588 16.9337533,1127.10372 16.9337533,1089.74879 L16.9337533,75.3808136 C16.9337533,38.0258822 47.2159084,7.74372703 84.5708399,7.74372703 L493.896115,7.74372703 Z M550,129 L25,129 L25,1035 L550,1035 L550,129 Z" id="Combined-Shape" fill="#F3F3F2"></path>
            <path d="M494.046772,8.10530184 C530.85671,8.10530184 560.69706,37.9456525 560.69706,74.7555906 L560.69706,1089.83165 C560.69706,1126.64159 530.85671,1156.48194 494.046772,1156.48194 L84.4352493,1156.48194 C47.6253113,1156.48194 17.7849606,1126.64159 17.7849606,1089.83165 L17.7849606,74.7555906 C17.7849606,37.9456525 47.6253113,8.10530184 84.4352493,8.10530184 L494.046772,8.10530184 Z M550,129 L25,129 L25,1035 L550,1035 L550,129 Z" id="Combined-Shape" fill="#F4F4F3"></path>
            <path d="M494.182362,8.46687664 C530.447307,8.46687664 559.845853,37.8654229 559.845853,74.1303675 L559.845853,1089.90698 C559.845853,1126.17193 530.447307,1155.57047 494.182362,1155.57047 L84.292126,1155.57047 C48.0271814,1155.57047 18.6286352,1126.17193 18.6286352,1089.90698 L18.6286352,74.1303675 C18.6286352,37.8654229 48.0271814,8.46687664 84.292126,8.46687664 L494.182362,8.46687664 Z M550,129 L25,129 L25,1035 L550,1035 L550,129 Z" id="Combined-Shape" fill="#F5F5F4"></path>
            <path d="M494.325486,8.82845144 C530.041276,8.82845144 558.994646,37.7818206 558.994646,73.4976115 L558.994646,1089.99738 C558.994646,1125.71317 530.041276,1154.66654 494.325486,1154.66654 L84.1414698,1154.66654 C48.4256789,1154.66654 19.4723097,1125.71317 19.4723097,1089.99738 L19.4723097,73.4976115 C19.4723097,37.7818206 48.4256789,8.82845144 84.1414698,8.82845144 L494.325486,8.82845144 Z M550,129 L25,129 L25,1035 L550,1035 L550,129 Z" id="Combined-Shape" fill="#F6F6F6"></path>
            <path d="M494.468609,9.19755906 C529.639406,9.19755906 558.150971,37.7091238 558.150971,72.8799213 L558.150971,1090.08777 C558.150971,1125.25857 529.639406,1153.77013 494.468609,1153.77013 L84.0058793,1153.77013 C48.8350818,1153.77013 20.3235171,1125.25857 20.3235171,1090.08777 L20.3235171,72.8799213 C20.3235171,37.7091238 48.8350818,9.19755906 84.0058793,9.19755906 L494.468609,9.19755906 Z M550,129 L25,129 L25,1035 L550,1035 L550,129 Z" id="Combined-Shape" fill="#F7F7F7"></path>
            <path d="M494.611732,9.55913386 C529.233376,9.55913386 557.299764,37.6255216 557.299764,72.2471654 L557.299764,1090.17816 C557.299764,1124.79981 529.233376,1152.86619 494.611732,1152.86619 L83.8552231,1152.86619 C49.2335793,1152.86619 21.1671916,1124.79981 21.1671916,1090.17816 L21.1671916,72.2471654 C21.1671916,37.6255216 49.2335793,9.55913386 83.8552231,9.55913386 L494.611732,9.55913386 Z M550,129 L25,129 L25,1035 L550,1035 L550,129 Z" id="Combined-Shape" fill="#F9F8F8"></path>
            <path d="M494.762388,9.92070866 C528.839039,9.92070866 556.463622,37.5452919 556.463622,71.6219423 L556.463622,1090.26102 C556.463622,1124.33767 528.839039,1151.96226 494.762388,1151.96226 L83.7196325,1151.96226 C49.6429822,1151.96226 22.018399,1124.33767 22.018399,1090.26102 L22.018399,71.6219423 C22.018399,37.5452919 49.6429822,9.92070866 83.7196325,9.92070866 L494.762388,9.92070866 Z M550,129 L25,129 L25,1035 L550,1035 L550,129 Z" id="Combined-Shape" fill="#FAFAFA"></path>
            <path d="M494.897979,10.2822835 C528.429636,10.2822835 555.612415,37.4650622 555.612415,70.9967192 L555.612415,1090.33635 C555.612415,1123.86801 528.429636,1151.05079 494.897979,1151.05079 L83.5765092,1151.05079 C50.0448523,1151.05079 22.8620735,1123.86801 22.8620735,1090.33635 L22.8620735,70.9967192 C22.8620735,37.4650622 50.0448523,10.2822835 83.5765092,10.2822835 L494.897979,10.2822835 Z M550,129 L25,129 L25,1035 L550,1035 L550,129 Z" id="Combined-Shape" fill="#FCFBFB"></path>
            <path d="M495.041102,10.6513911 C528.023606,10.6513911 554.761207,37.3889928 554.761207,70.3714961 L554.761207,1090.43428 C554.761207,1123.41678 528.023606,1150.15438 495.041102,1150.15438 L83.425853,1150.15438 C50.4433498,1150.15438 23.705748,1123.41678 23.705748,1090.43428 L23.705748,70.3714961 C23.705748,37.3889928 50.4433498,10.6513911 83.425853,10.6513911 L495.041102,10.6513911 Z M550,129 L25,129 L25,1035 L550,1035 L550,129 Z" id="Combined-Shape" fill="#FDFDFD"></path>
            <path d="M495.184226,11.0129659 C527.621736,11.0129659 553.917533,37.3087632 553.917533,69.746273 L553.917533,1090.51714 C553.917533,1122.95465 527.621736,1149.25045 495.184226,1149.25045 L83.2902625,1149.25045 C50.8527527,1149.25045 24.5569554,1122.95465 24.5569554,1090.51714 L24.5569554,69.746273 C24.5569554,37.3087632 50.8527527,11.0129659 83.2902625,11.0129659 L495.184226,11.0129659 Z M550,129 L25,129 L25,1035 L550,1035 L550,129 Z" id="Combined-Shape" fill="#FFFFFF"></path>
            <path d="M329.99727,31.5172703 L248.477218,31.5172703 C246.646706,31.5172703 245.162782,33.0011937 245.162782,34.831706 L245.162782,34.831706 C245.162782,36.6622183 246.646706,38.1461417 248.477218,38.1461417 L329.99727,38.1461417 C331.827783,38.1461417 333.311706,36.6622183 333.311706,34.831706 L333.311706,34.831706 C333.311706,33.0011937 331.827783,31.5172703 329.99727,31.5172703 Z" id="Path" fill="#F2F2F2"></path>
        </g>
        <mask id="mask-3" fill="white">
            <use xlink:href="#path-1"></use>
        </mask>
        <g id="Rectangle" filter="url(#filter-2)">
            <use fill-opacity="0" fill="#D8D8D8" fill-rule="evenodd" xlink:href="#path-1"></use>
            <use fill="black" fill-opacity="1" filter="url(#filter-4)" xlink:href="#path-1"></use>
        </g>
    </g>
</svg>